<?xml version="1.0" standalone="no"?>
<!DOCTYPE svg PUBLIC "-//W3C//DTD SVG 20010904//EN"
 "http://www.w3.org/TR/2001/REC-SVG-20010904/DTD/svg10.dtd">
<svg version="1.0" xmlns="http://www.w3.org/2000/svg"
 width="600.000000pt" height="600.000000pt" viewBox="0 0 600.000000 600.000000"
 preserveAspectRatio="xMidYMid meet">
<metadata>
Created by potrace 1.11, written by Peter Selinger 2001-2013
</metadata>
<g transform="translate(0.000000,600.000000) scale(0.100000,-0.100000)"
fill="#000000" stroke="none">
<path d="M2905 5874 c-533 -221 -1022 -700 -1309 -1284 -26 -52 -52 -103 -57
-113 -16 -30 -106 -258 -120 -305 -15 -52 -19 -55 -99 -76 -36 -9 -99 -25
-140 -37 -41 -11 -82 -22 -90 -24 -8 -1 -60 -15 -115 -30 -100 -27 -157 -42
-185 -49 -142 -35 -171 -66 -185 -198 -4 -34 -8 -65 -10 -68 -1 -3 -6 -30 -9
-61 -4 -31 -9 -67 -11 -79 -2 -12 -7 -48 -10 -79 -4 -31 -8 -63 -10 -71 -6
-21 -13 -66 -20 -130 -7 -57 -12 -98 -20 -140 -40 -224 -13 -286 133 -314 l67
-13 -40 -11 c-62 -17 -234 -52 -290 -58 -27 -3 -52 -7 -56 -9 -3 -2 -39 -6
-80 -10 -163 -13 -179 -18 -219 -68 -20 -25 -25 -43 -27 -98 -6 -210 136 -449
397 -669 36 -30 67 -57 70 -60 12 -12 150 -111 207 -148 l62 -40 -26 -33 c-14
-19 -51 -54 -81 -79 -131 -106 -135 -112 -140 -176 -7 -102 34 -140 198 -188
88 -25 107 -29 248 -50 165 -25 517 -26 664 -1 13 2 43 6 68 9 25 4 54 8 64 9
15 3 37 -21 94 -102 287 -411 655 -716 1086 -900 82 -35 111 -30 295 57 125
58 317 181 451 289 103 83 290 269 367 366 32 40 60 74 63 77 7 6 96 131 130
182 17 26 30 35 45 32 26 -6 69 -12 125 -18 369 -42 710 -19 970 66 118 38
155 82 148 173 -5 60 -24 89 -87 133 -54 37 -107 86 -138 125 l-22 29 87 57
c201 133 385 297 492 439 143 191 203 436 127 524 -31 35 -64 51 -117 55 -103
7 -149 12 -215 22 -89 14 -124 20 -155 27 -14 3 -36 8 -50 10 -22 4 -301 74
-357 90 -22 6 -23 11 -24 113 -1 202 -14 485 -24 501 -2 3 -6 37 -10 75 -4 39
-14 87 -22 107 -17 42 -101 113 -241 203 -90 57 -92 60 -107 114 -124 438
-321 829 -585 1159 -90 113 -251 279 -345 357 -33 28 -68 58 -79 67 -11 10
-38 30 -60 45 -23 16 -47 33 -54 40 -25 24 -199 127 -292 174 -195 97 -227
104 -325 63z"/>
</g>
</svg>
